<?xml version="1.0" encoding="UTF-8"?>
<svg id="_Слой_1" data-name="Слой 1" xmlns="http://www.w3.org/2000/svg" xmlns:xlink="http://www.w3.org/1999/xlink" viewBox="0 0 1920 1920">
  <defs>
    <style>
      .cls-1 {
        fill: url(#_Безымянный_градиент_22-3);
      }

      .cls-2 {
        fill: url(#_Безымянный_градиент_22);
      }

      .cls-3 {
        fill: url(#_Безымянный_градиент_22-2);
      }
    </style>
    <linearGradient id="_Безымянный_градиент_22" data-name="Безымянный градиент 22" x1="960" y1="144.38" x2="960" y2="2238.06" gradientUnits="userSpaceOnUse">
      <stop offset="0" stop-color="#29abe2"/>
      <stop offset=".5" stop-color="#0071bc"/>
      <stop offset="1" stop-color="#662d91"/>
    </linearGradient>
    <linearGradient id="_Безымянный_градиент_22-2" data-name="Безымянный градиент 22" x1="613.4" y1="144.38" x2="613.4" y2="2238.06" xlink:href="#_Безымянный_градиент_22"/>
    <linearGradient id="_Безымянный_градиент_22-3" data-name="Безымянный градиент 22" x1="1368.12" y1="144.38" x2="1368.12" y2="2238.06" xlink:href="#_Безымянный_градиент_22"/>
  </defs>
  <path class="cls-2" d="m1665.21,452.49l-687.55-232.02c-11.44-3.86-23.86-3.86-35.3,0L254.79,452.49c-22.44,7.58-37.55,28.61-37.55,52.32v910.38c0,23.72,15.11,44.74,37.55,52.32l687.55,232.02c11.44,3.86,23.86,3.86,35.3,0l687.55-232.02c22.44-7.58,37.55-28.61,37.55-52.32V504.81c0-23.72-15.11-44.74-37.55-52.32Zm-753.42,1134.87l-598.07-201.75v-851.22l598.07-201.75v1254.72Zm110.8-660.07c-.88,9.09-14.38,8.41-14.38-.73V332.64l499.2,168.45c8.66,2.93,4.99,15.89-3.91,13.84l-430.94-100.58-49.97,512.94Zm460.13,189.58c-33.84,41.81-78.77,64.94-126.65,64.94-23.96,0-47.14-5.77-68.56-16.72-21.47-11.05-41.17-27.33-58.09-48.21-33.79-41.91-52.42-97.6-52.42-156.86s18.63-114.96,52.42-156.82c33.79-41.86,78.77-64.99,126.65-64.99s92.81,23.13,126.65,64.99c33.84,41.86,52.52,97.55,52.52,156.82s-18.68,114.96-52.52,156.86Z"/>
  <polygon class="cls-3" points="857.73 1028.18 491.22 915.84 491.22 656.03 735.58 581.13 735.58 871.42 857.73 908.81 857.73 414.35 369.07 578.51 369.07 997.81 735.58 1110.1 735.58 1348.83 491.22 1273.94 491.22 1154.57 369.07 1117.18 369.07 1340.07 857.73 1505.65 857.73 1028.18"/>
  <path class="cls-1" d="m1368.09,768.01c-41.17,0-79.85,20.04-108.91,56.26-29.06,36.22-45.07,84.42-45.07,135.73s16.01,99.52,45.07,135.73c14.53,18.11,31.48,32.19,49.91,41.75,18.43,9.47,38.41,14.5,58.99,14.5,41.17,0,79.85-20.04,108.91-56.26,29.13-36.22,45.14-84.42,45.14-135.73s-16.01-99.52-45.14-135.73c-29.06-36.22-67.74-56.26-108.91-56.26Zm82.61,149.4c1.28,3.86,4.31,6.12,7.47,6.12,1.01,0,2.02-.17,3.03-.75l37.27-19.2c4.1,14.84,6.59,30.43,7.33,46.36h-40.23c-4.44,0-8.07,4.53-8.07,10.06s3.63,10.06,8.07,10.06h40.23c-.74,15.93-3.23,31.52-7.33,46.36l-37.27-19.2c-4.1-2.18-8.81.25-10.49,5.37-1.68,5.11.27,10.98,4.37,13.16l37.27,19.2c-5.52,14.17-12.65,27.33-21.19,39.32l-28.45-35.46-24.49-30.43c3.5-5.53,6.32-11.57,8.48-18.11,3.23-9.64,4.84-19.87,4.84-30.27s-1.61-20.62-4.84-30.27c-3.23-9.64-7.87-18.28-13.72-25.57-5.85-7.38-12.78-13.16-20.58-17.19-7.74-4.02-15.88-6.04-24.28-6.04s-16.62,2.1-24.28,6.04c-7.67,3.94-14.6,9.73-20.58,17.1-5.85,7.38-10.49,16.01-13.72,25.65-3.23,9.64-4.84,19.87-4.84,30.27s1.61,20.62,4.84,30.27c3.23,9.64,7.87,18.28,13.72,25.65,5.99,7.38,12.92,13.16,20.58,17.1,7.67,3.94,15.88,6.04,24.28,6.04s16.55-2.01,24.28-6.04c5.25-2.68,10.09-6.2,14.46-10.48l24.49,30.43,28.45,35.46c-9.62,10.65-20.18,19.53-31.55,26.33l-15.4-46.36c-1.75-5.11-6.46-7.55-10.56-5.45-4.1,2.1-5.99,7.96-4.31,13.08l15.4,46.45c-11.91,5.11-24.35,8.22-37.2,9.14v-50.22c0-5.53-3.63-9.98-8.07-9.98s-8,4.44-8,9.98v50.22c-12.85-.92-25.36-4.02-37.27-9.14l15.4-46.45c1.68-5.11-.27-10.98-4.37-13.08-4.1-2.18-8.81.25-10.49,5.37l-15.4,46.45c-11.37-6.79-21.93-15.68-31.55-26.33l28.45-35.46c3.16-3.94,3.16-10.23,0-14.17-3.09-3.94-8.21-3.94-11.37,0l-28.45,35.46c-8.54-11.99-15.67-25.15-21.12-39.32l37.2-19.2c4.1-2.18,6.05-8.05,4.37-13.16-1.68-5.11-6.39-7.55-10.49-5.37l-37.27,19.2c-4.1-14.84-6.59-30.43-7.33-46.36h40.29c4.44,0,8-4.53,8-10.06s-3.57-10.06-8-10.06h-40.29c.74-15.93,3.23-31.52,7.33-46.36l37.27,19.2c1.01.59,2.02.75,3.09.75,3.16,0,6.12-2.26,7.4-6.12,1.68-5.11-.27-10.98-4.37-13.16l-37.2-19.2c5.45-14.17,12.58-27.33,21.12-39.32l28.45,35.46c1.61,1.93,3.63,2.93,5.72,2.93s4.1-1.01,5.65-2.93c3.16-3.94,3.16-10.23,0-14.17l-28.45-35.46c9.62-10.65,20.18-19.53,31.55-26.33l15.4,46.45c1.28,3.86,4.31,6.2,7.47,6.2,1.01,0,2.02-.25,3.03-.84,4.1-2.1,6.05-7.96,4.37-13.08l-15.4-46.45c11.91-5.11,24.42-8.22,37.27-9.14v50.22c0,5.53,3.56,9.98,8,9.98s8.07-4.44,8.07-9.98v-50.22c12.85.92,25.29,4.02,37.2,9.14l-15.4,46.45c-1.68,5.11.2,10.98,4.31,13.08,1.01.5,2.09.75,3.09.75,3.16,0,6.19-2.35,7.47-6.2l15.4-46.36c11.37,6.79,21.93,15.68,31.55,26.33l-28.45,35.46c-3.16,3.94-3.16,10.23,0,14.17,1.55,1.93,3.63,2.93,5.72,2.93s4.1-1.01,5.65-2.93l28.45-35.46c8.54,11.99,15.67,25.15,21.19,39.32l-37.27,19.2c-4.1,2.18-6.05,8.05-4.37,13.16Z"/>
</svg>