<?xml version="1.0" encoding="UTF-8"?>
<svg id="_Слой_1" data-name="Слой 1" xmlns="http://www.w3.org/2000/svg" xmlns:xlink="http://www.w3.org/1999/xlink" viewBox="0 0 1920 1920">
  <defs>
    <style>
      .cls-1 {
        fill: url(#_Безымянный_градиент_22-3);
      }

      .cls-2 {
        fill: url(#_Безымянный_градиент_22);
      }

      .cls-3 {
        fill: url(#_Безымянный_градиент_22-2);
      }
    </style>
    <linearGradient id="_Безымянный_градиент_22" data-name="Безымянный градиент 22" x1="960" y1="140.38" x2="960" y2="1334.99" gradientUnits="userSpaceOnUse">
      <stop offset="0" stop-color="#29abe2"/>
      <stop offset=".5" stop-color="#0071bc"/>
      <stop offset="1" stop-color="#662d91"/>
    </linearGradient>
    <linearGradient id="_Безымянный_градиент_22-2" data-name="Безымянный градиент 22" x1="762.23" y1="140.38" x2="762.23" y2="1334.99" xlink:href="#_Безымянный_градиент_22"/>
    <linearGradient id="_Безымянный_градиент_22-3" data-name="Безымянный градиент 22" x1="1192.87" y1="140.38" x2="1192.87" y2="1334.99" xlink:href="#_Безымянный_градиент_22"/>
  </defs>
  <g>
    <g>
      <path d="m399.67,1363.9c-5.67-4.1-13.73-8.63-24.65-13.86-10.57-5.05-24.23-10.54-40.73-16.37-17.6-5.85-30.5-11.91-38.19-17.9-8.69-7.11-12.91-15.93-12.91-26.94,0-25.83,13.49-37.35,43.75-37.35,23.28,0,41.81,7.2,56.62,22l4.94,4.93,32.71-28.36-5.69-5.7c-24.12-24.13-53.92-36.36-88.58-36.36-25.68,0-46.86,8.16-62.79,24.1-16.69,15.63-25.15,34.72-25.15,56.73,0,25.54,8.6,45.46,25.52,59.18,11.18,9.16,28.67,17.96,53.41,26.87,12.5,4.64,23.34,8.8,32.18,12.36,8.1,3.29,14.44,6.27,18.85,8.86,13.62,10.86,20.24,23.04,20.24,37.23,0,33.73-18.88,49.44-59.4,49.44-18.66,0-33.41-4.03-44.07-12.15-10.41-7.36-19.47-18.01-26.94-31.64l-3.75-6.84-37.81,22.68,3.5,6.34c24.11,43.66,60.81,65.81,109.07,65.81,28.27,0,52.89-8.74,73.19-25.97,20.19-17.08,30.42-39.85,30.42-67.65h0c-.04-28.91-11.34-52.22-33.75-69.42Z"/>
      <path d="m741.72,1252.06c-30.37-29.24-67.27-44.04-109.95-44.04s-82.76,15.59-113.5,46.32c-30.27,30.25-45.62,68.2-45.62,112.79s15.59,82.77,46.33,113.5c30.25,30.27,68.2,45.62,112.79,45.62s79.91-14.75,109.96-43.89v38.91h44.19v-308.98h-44.2v39.77Zm-109.95-.58c31.92,0,58.59,11.16,81.54,34.1,22.95,22.96,34.11,49.63,34.11,81.54s-11.16,59.3-34.11,82.26c-22.48,22.47-49.15,33.39-81.54,33.39s-58.58-11.16-81.54-34.1c-22.95-22.95-34.11-49.62-34.11-81.55s11.16-59.29,34.11-82.25c22.48-22.47,49.15-33.39,81.54-33.39Z"/>
      <path d="m1113.63,1254.02c-31.23-30.55-68.85-46.01-112.08-46.01s-82.76,15.59-113.5,46.34c-30.27,30.27-45.62,68.22-45.62,112.79s15.59,82.77,46.33,113.5c30.25,30.27,68.2,45.62,112.79,45.62s81.54-15.35,112.08-45.69v118.34h44.18v-386.61h-44.19v41.73Zm-112.09-2.54c31.91,0,58.58,11.16,81.54,34.1,22.95,22.95,34.1,49.62,34.1,81.54h0c.01,32.39-11.14,59.29-34.1,82.26-22.48,22.47-49.15,33.39-81.54,33.39s-58.59-11.16-81.54-34.1c-22.95-22.95-34.11-49.62-34.11-81.55s11.16-59.31,34.11-82.25c22.46-22.47,49.13-33.39,81.54-33.39Z"/>
      <polygon points="1304.07 1135.38 1259.88 1135.38 1259.88 1212.29 1198.82 1212.29 1198.82 1256.47 1259.88 1256.47 1259.88 1521.27 1304.07 1521.27 1304.07 1256.47 1372.4 1256.47 1372.4 1212.29 1304.07 1212.29 1304.07 1135.38"/>
      <path d="m1658.56,1212.29v39.77c-30.37-29.24-67.27-44.04-109.95-44.04s-82.76,15.59-113.5,46.32c-30.27,30.25-45.62,68.2-45.62,112.79s15.59,82.77,46.33,113.5c30.25,30.27,68.2,45.62,112.79,45.62s79.91-14.75,109.96-43.89v38.91h44.19v-308.98h-44.2Zm-109.95,39.19c31.92,0,58.59,11.16,81.54,34.1,22.95,22.96,34.11,49.63,34.11,81.54s-11.16,59.3-34.11,82.26c-22.48,22.47-49.15,33.39-81.54,33.39s-58.58-11.16-81.54-34.1c-22.95-22.95-34.11-49.62-34.11-81.55s11.16-59.29,34.11-82.25c22.48-22.47,49.15-33.39,81.54-33.39Z"/>
    </g>
    <g>
      <path d="m514.03,1737.86v-97.3h15.01l33.22,69.08,33.08-69.08h15.01v97.3h-10.15v-85.07l-38.09,78.12-38.09-77.98v84.93h-10.01Z"/>
      <path d="m691.11,1737.86l40.31-97.3h12.93l40.03,97.3h-11.68l-12.23-30.58h-45.87l-12.37,30.58h-11.12Zm27.24-39.75h38.36l-19.18-47.68-19.18,47.68Z"/>
      <path d="m865.13,1737.86v-97.3h41.7c6.39,0,11.95,1.16,16.68,3.47,4.73,2.32,8.41,5.56,11.05,9.73,2.64,4.17,3.96,9.08,3.96,14.73,0,6.39-1.88,11.88-5.63,16.47-3.75,4.59-8.78,7.81-15.08,9.66l21.82,43.23h-11.82l-20.85-41.84h-31.14v41.84h-10.7Zm10.7-50.87h30.3c6.58,0,11.84-1.67,15.78-5,3.94-3.34,5.91-7.83,5.91-13.48s-1.97-10.01-5.91-13.34c-3.94-3.34-9.2-5-15.78-5h-30.3v36.83Z"/>
      <path d="m1024.29,1737.86v-97.3h10.7v46.15l50.32-46.15h14.04l-52.82,47.68,53.93,49.62h-15.01l-50.46-46.7v46.7h-10.7Z"/>
      <path d="m1178.16,1737.86v-97.3h69.64v9.45h-58.94v34.05h38.5v9.31h-38.5v35.03h59.49v9.45h-70.19Z"/>
      <path d="m1360.11,1737.86v-87.71h-35.17v-9.59h81.03v9.59h-35.17v87.71h-10.7Z"/>
    </g>
  </g>
  <g>
    <path class="cls-2" d="m1362.38,316.17l-392.31-132.39c-6.53-2.2-13.62-2.2-20.14,0l-392.31,132.39c-12.81,4.32-21.43,16.32-21.43,29.85v519.45c0,13.53,8.62,25.53,21.43,29.85l392.31,132.39c6.53,2.2,13.62,2.2,20.14,0l392.31-132.39c12.81-4.32,21.43-16.32,21.43-29.85V346.03c0-13.53-8.62-25.53-21.43-29.85Zm-429.89,647.54l-341.25-115.12v-485.69l341.25-115.12v715.92Zm63.22-376.63c-.5,5.19-8.2,4.8-8.2-.42V247.79l284.83,96.12c4.94,1.67,2.85,9.07-2.23,7.9l-245.88-57.39-28.51,292.67Zm262.54,108.17c-19.31,23.85-44.95,37.05-72.26,37.05-13.67,0-26.9-3.29-39.12-9.54-12.25-6.31-23.49-15.6-33.15-27.51-19.28-23.91-29.91-55.69-29.91-89.5s10.63-65.59,29.91-89.48c19.28-23.88,44.95-37.08,72.26-37.08s52.95,13.2,72.26,37.08c19.31,23.88,29.96,55.66,29.96,89.48s-10.66,65.59-29.96,89.5Z"/>
    <polygon class="cls-3" points="901.64 644.65 692.52 580.55 692.52 432.31 831.95 389.58 831.95 555.21 901.64 576.55 901.64 294.41 622.82 388.08 622.82 627.33 831.95 691.4 831.95 827.61 692.52 784.88 692.52 716.77 622.82 695.43 622.82 822.61 901.64 917.09 901.64 644.65"/>
    <path class="cls-1" d="m1192.85,496.21c-23.49,0-45.56,11.43-62.14,32.1-16.58,20.67-25.72,48.17-25.72,77.45s9.14,56.78,25.72,77.45c8.29,10.33,17.96,18.37,28.48,23.82,10.52,5.41,21.92,8.28,33.66,8.28,23.49,0,45.56-11.43,62.14-32.1,16.62-20.67,25.75-48.17,25.75-77.45s-9.13-56.78-25.75-77.45c-16.58-20.67-38.65-32.1-62.14-32.1Zm47.13,85.24c.73,2.2,2.46,3.49,4.26,3.49.58,0,1.15-.1,1.73-.43l21.26-10.95c2.34,8.47,3.76,17.36,4.18,26.45h-22.95c-2.53,0-4.61,2.58-4.61,5.74s2.07,5.74,4.61,5.74h22.95c-.42,9.09-1.84,17.99-4.18,26.45l-21.26-10.95c-2.34-1.24-5.03.14-5.99,3.06-.96,2.92.15,6.27,2.49,7.51l21.26,10.95c-3.15,8.08-7.22,15.59-12.09,22.44l-16.24-20.23-13.97-17.36c2-3.16,3.61-6.6,4.84-10.33,1.84-5.5,2.76-11.34,2.76-17.27s-.92-11.77-2.76-17.27c-1.84-5.5-4.49-10.43-7.83-14.59-3.34-4.21-7.29-7.51-11.74-9.81-4.41-2.3-9.06-3.44-13.86-3.44s-9.48,1.2-13.86,3.44c-4.38,2.25-8.33,5.55-11.74,9.76-3.34,4.21-5.99,9.14-7.83,14.64-1.84,5.5-2.76,11.34-2.76,17.27s.92,11.77,2.76,17.27c1.84,5.5,4.49,10.43,7.83,14.64,3.42,4.21,7.37,7.51,11.74,9.76,4.38,2.25,9.06,3.44,13.86,3.44s9.44-1.15,13.86-3.44c2.99-1.53,5.76-3.54,8.25-5.98l13.97,17.36,16.24,20.23c-5.49,6.08-11.51,11.15-18,15.02l-8.79-26.45c-1-2.92-3.68-4.31-6.03-3.11-2.34,1.2-3.42,4.54-2.46,7.46l8.79,26.5c-6.79,2.92-13.89,4.69-21.23,5.21v-28.65c0-3.16-2.07-5.69-4.61-5.69s-4.57,2.54-4.57,5.69v28.65c-7.33-.53-14.47-2.3-21.26-5.21l8.79-26.5c.96-2.92-.15-6.27-2.49-7.46-2.34-1.24-5.03.14-5.99,3.06l-8.79,26.5c-6.49-3.87-12.51-8.95-18-15.02l16.24-20.23c1.8-2.25,1.8-5.84,0-8.08-1.77-2.25-4.68-2.25-6.49,0l-16.24,20.23c-4.87-6.84-8.94-14.35-12.05-22.44l21.23-10.95c2.34-1.24,3.45-4.59,2.49-7.51-.96-2.92-3.65-4.31-5.99-3.06l-21.26,10.95c-2.34-8.47-3.76-17.36-4.18-26.45h22.99c2.53,0,4.57-2.58,4.57-5.74s-2.03-5.74-4.57-5.74h-22.99c.42-9.09,1.84-17.99,4.18-26.45l21.26,10.95c.58.33,1.15.43,1.77.43,1.8,0,3.49-1.29,4.22-3.49.96-2.92-.15-6.27-2.49-7.51l-21.23-10.95c3.11-8.08,7.18-15.59,12.05-22.44l16.24,20.23c.92,1.1,2.07,1.67,3.26,1.67s2.34-.57,3.22-1.67c1.8-2.25,1.8-5.84,0-8.08l-16.24-20.23c5.49-6.08,11.51-11.15,18-15.02l8.79,26.5c.73,2.2,2.46,3.54,4.26,3.54.58,0,1.15-.14,1.73-.48,2.34-1.2,3.45-4.54,2.49-7.46l-8.79-26.5c6.79-2.92,13.93-4.69,21.26-5.21v28.65c0,3.16,2.03,5.69,4.57,5.69s4.61-2.54,4.61-5.69v-28.65c7.33.53,14.43,2.3,21.23,5.21l-8.79,26.5c-.96,2.92.12,6.27,2.46,7.46.58.29,1.19.43,1.77.43,1.8,0,3.53-1.34,4.26-3.54l8.79-26.45c6.49,3.87,12.51,8.95,18,15.02l-16.24,20.23c-1.8,2.25-1.8,5.84,0,8.08.88,1.1,2.07,1.67,3.26,1.67s2.34-.57,3.22-1.67l16.24-20.23c4.87,6.84,8.94,14.35,12.09,22.44l-21.26,10.95c-2.34,1.24-3.45,4.59-2.49,7.51Z"/>
  </g>
</svg>