<?xml version="1.0" encoding="UTF-8"?>
<svg id="_Слой_1" data-name="Слой 1" xmlns="http://www.w3.org/2000/svg" viewBox="0 0 1920 1080">
  <g>
    <path d="m399.67,504c-5.67-4.1-13.73-8.63-24.65-13.86-10.57-5.05-24.23-10.54-40.73-16.37-17.6-5.85-30.5-11.91-38.19-17.9-8.69-7.11-12.91-15.93-12.91-26.94,0-25.83,13.49-37.35,43.75-37.35,23.28,0,41.81,7.2,56.62,22l4.94,4.93,32.71-28.36-5.69-5.7c-24.12-24.13-53.92-36.36-88.58-36.36-25.68,0-46.86,8.16-62.79,24.1-16.69,15.63-25.15,34.72-25.15,56.73,0,25.54,8.6,45.46,25.52,59.18,11.18,9.16,28.67,17.96,53.41,26.87,12.5,4.64,23.34,8.8,32.18,12.36,8.1,3.29,14.44,6.27,18.85,8.86,13.62,10.86,20.24,23.04,20.24,37.23,0,33.73-18.88,49.44-59.4,49.44-18.66,0-33.41-4.03-44.07-12.15-10.41-7.36-19.47-18.01-26.94-31.64l-3.75-6.84-37.81,22.68,3.5,6.34c24.11,43.66,60.81,65.81,109.07,65.81,28.27,0,52.89-8.74,73.19-25.97,20.19-17.08,30.42-39.85,30.42-67.65h0c-.04-28.91-11.34-52.22-33.75-69.42Z"/>
    <path d="m741.72,392.16c-30.37-29.24-67.27-44.04-109.95-44.04s-82.76,15.59-113.5,46.32c-30.27,30.25-45.62,68.2-45.62,112.79s15.59,82.77,46.33,113.5c30.25,30.27,68.2,45.62,112.79,45.62s79.91-14.75,109.96-43.89v38.91h44.19v-308.98h-44.2v39.77Zm-109.95-.58c31.92,0,58.59,11.16,81.54,34.1,22.95,22.96,34.11,49.63,34.11,81.54s-11.16,59.3-34.11,82.26c-22.48,22.47-49.15,33.39-81.54,33.39s-58.58-11.16-81.54-34.1c-22.95-22.95-34.11-49.62-34.11-81.55s11.16-59.29,34.11-82.25c22.48-22.47,49.15-33.39,81.54-33.39Z"/>
    <path d="m1113.63,394.12c-31.23-30.55-68.85-46.01-112.08-46.01s-82.76,15.59-113.5,46.34c-30.27,30.27-45.62,68.22-45.62,112.79s15.59,82.77,46.33,113.5c30.25,30.27,68.2,45.62,112.79,45.62s81.54-15.35,112.08-45.69v118.34h44.18v-386.61h-44.19v41.73Zm-112.09-2.54c31.91,0,58.58,11.16,81.54,34.1,22.95,22.95,34.1,49.62,34.1,81.54h0c.01,32.39-11.14,59.29-34.1,82.26-22.48,22.47-49.15,33.39-81.54,33.39s-58.59-11.16-81.54-34.1c-22.95-22.95-34.11-49.62-34.11-81.55s11.16-59.31,34.11-82.25c22.46-22.47,49.13-33.39,81.54-33.39Z"/>
    <polygon points="1304.07 275.48 1259.88 275.48 1259.88 352.39 1198.82 352.39 1198.82 396.57 1259.88 396.57 1259.88 661.37 1304.07 661.37 1304.07 396.57 1372.4 396.57 1372.4 352.39 1304.07 352.39 1304.07 275.48"/>
    <path d="m1658.56,352.39v39.77c-30.37-29.24-67.27-44.04-109.95-44.04s-82.76,15.59-113.5,46.32c-30.27,30.25-45.62,68.2-45.62,112.79s15.59,82.77,46.33,113.5c30.25,30.27,68.2,45.62,112.79,45.62s79.91-14.75,109.96-43.89v38.91h44.19v-308.98h-44.2Zm-109.95,39.19c31.92,0,58.59,11.16,81.54,34.1,22.95,22.96,34.11,49.63,34.11,81.54s-11.16,59.3-34.11,82.26c-22.48,22.47-49.15,33.39-81.54,33.39s-58.58-11.16-81.54-34.1c-22.95-22.95-34.11-49.62-34.11-81.55s11.16-59.29,34.11-82.25c22.48-22.47,49.15-33.39,81.54-33.39Z"/>
  </g>
  <g>
    <path d="m514.03,877.96v-97.3h15.01l33.22,69.08,33.08-69.08h15.01v97.3h-10.15v-85.07l-38.09,78.12-38.09-77.98v84.93h-10.01Z"/>
    <path d="m691.11,877.96l40.31-97.3h12.93l40.03,97.3h-11.68l-12.23-30.58h-45.87l-12.37,30.58h-11.12Zm27.24-39.75h38.36l-19.18-47.68-19.18,47.68Z"/>
    <path d="m865.13,877.96v-97.3h41.7c6.39,0,11.95,1.16,16.68,3.47,4.73,2.32,8.41,5.56,11.05,9.73,2.64,4.17,3.96,9.08,3.96,14.73,0,6.39-1.88,11.88-5.63,16.47-3.75,4.59-8.78,7.81-15.08,9.66l21.82,43.23h-11.82l-20.85-41.84h-31.14v41.84h-10.7Zm10.7-50.87h30.3c6.58,0,11.84-1.67,15.78-5,3.94-3.34,5.91-7.83,5.91-13.48s-1.97-10.01-5.91-13.34c-3.94-3.34-9.2-5-15.78-5h-30.3v36.83Z"/>
    <path d="m1024.29,877.96v-97.3h10.7v46.15l50.32-46.15h14.04l-52.82,47.68,53.93,49.62h-15.01l-50.46-46.7v46.7h-10.7Z"/>
    <path d="m1178.16,877.96v-97.3h69.64v9.45h-58.94v34.05h38.5v9.31h-38.5v35.03h59.49v9.45h-70.19Z"/>
    <path d="m1360.11,877.96v-87.71h-35.17v-9.59h81.03v9.59h-35.17v87.71h-10.7Z"/>
  </g>
</svg>